<svg width="25" height="26" viewBox="0 0 25 26" fill="none" xmlns="http://www.w3.org/2000/svg">
<path d="M17.7083 19.2502C16.552 19.2502 15.625 20.1772 15.625 21.3335C15.625 21.886 15.8445 22.4159 16.2352 22.8066C16.6259 23.1973 17.1558 23.4168 17.7083 23.4168C18.2608 23.4168 18.7907 23.1973 19.1814 22.8066C19.5721 22.4159 19.7916 21.886 19.7916 21.3335C19.7916 20.781 19.5721 20.2511 19.1814 19.8604C18.7907 19.4697 18.2608 19.2502 17.7083 19.2502ZM1.04163 2.5835V4.66683H3.12496L6.87496 12.5731L5.45829 15.1252C5.30204 15.4168 5.20829 15.7606 5.20829 16.1252C5.20829 16.6777 5.42779 17.2076 5.81849 17.5983C6.20919 17.989 6.73909 18.2085 7.29163 18.2085H19.7916V16.1252H7.72913C7.66006 16.1252 7.59382 16.0977 7.54498 16.0489C7.49615 16.0001 7.46871 15.9338 7.46871 15.8647C7.46871 15.8127 7.47913 15.771 7.49996 15.7397L8.43746 14.0418H16.1979C16.9791 14.0418 17.6666 13.6043 18.0208 12.9689L21.75 6.22933C21.8229 6.06266 21.875 5.88558 21.875 5.7085C21.875 5.43223 21.7652 5.16728 21.5699 4.97193C21.3745 4.77658 21.1096 4.66683 20.8333 4.66683H5.42704L4.44788 2.5835M7.29163 19.2502C6.13538 19.2502 5.20829 20.1772 5.20829 21.3335C5.20829 21.886 5.42779 22.4159 5.81849 22.8066C6.20919 23.1973 6.73909 23.4168 7.29163 23.4168C7.84416 23.4168 8.37406 23.1973 8.76477 22.8066C9.15547 22.4159 9.37496 21.886 9.37496 21.3335C9.37496 20.781 9.15547 20.2511 8.76477 19.8604C8.37406 19.4697 7.84416 19.2502 7.29163 19.2502Z" fill="black"/>
</svg>
