<svg width="18" height="18" viewBox="0 0 18 18" fill="none" xmlns="http://www.w3.org/2000/svg">
<path d="M1 1H3.90909L5.85818 11.2019C5.92469 11.5527 6.10684 11.8678 6.37276 12.092C6.63868 12.3163 6.97142 12.4354 7.31273 12.4286H14.3818C14.7231 12.4354 15.0559 12.3163 15.3218 12.092C15.5877 11.8678 15.7699 11.5527 15.8364 11.2019L17 4.80952H4.63636M7.54545 16.2381C7.54545 16.6589 7.21984 17 6.81818 17C6.41652 17 6.09091 16.6589 6.09091 16.2381C6.09091 15.8173 6.41652 15.4762 6.81818 15.4762C7.21984 15.4762 7.54545 15.8173 7.54545 16.2381ZM15.5455 16.2381C15.5455 16.6589 15.2198 17 14.8182 17C14.4165 17 14.0909 16.6589 14.0909 16.2381C14.0909 15.8173 14.4165 15.4762 14.8182 15.4762C15.2198 15.4762 15.5455 15.8173 15.5455 16.2381Z" stroke="black" stroke-linecap="round" stroke-linejoin="round"/>
</svg>
