<svg width="27" height="26" viewBox="0 0 27 26" fill="none" xmlns="http://www.w3.org/2000/svg">
<path d="M1.125 1.125H5.625L8.64 16.1888C8.74288 16.7067 9.02465 17.172 9.43599 17.5031C9.84733 17.8342 10.362 18.0101 10.89 18H21.825C22.353 18.0101 22.8677 17.8342 23.279 17.5031C23.6904 17.172 23.9721 16.7067 24.075 16.1888L25.875 6.75H6.75M11.25 23.625C11.25 24.2463 10.7463 24.75 10.125 24.75C9.50368 24.75 9 24.2463 9 23.625C9 23.0037 9.50368 22.5 10.125 22.5C10.7463 22.5 11.25 23.0037 11.25 23.625ZM23.625 23.625C23.625 24.2463 23.1213 24.75 22.5 24.75C21.8787 24.75 21.375 24.2463 21.375 23.625C21.375 23.0037 21.8787 22.5 22.5 22.5C23.1213 22.5 23.625 23.0037 23.625 23.625Z" stroke="white" stroke-width="2" stroke-linecap="round" stroke-linejoin="round"/>
</svg>
