<svg width="9" height="10" viewBox="0 0 9 10" fill="none" xmlns="http://www.w3.org/2000/svg">
<path d="M3.06392 1.1625C2.92339 1.1625 2.78862 1.21724 2.68925 1.31468C2.58988 1.41212 2.53405 1.54428 2.53405 1.68208C2.53405 1.81988 2.58988 1.95204 2.68925 2.04948C2.78862 2.14692 2.92339 2.20166 3.06392 2.20166C3.20446 2.20166 3.33923 2.14692 3.4386 2.04948C3.53797 1.95204 3.5938 1.81988 3.5938 1.68208C3.5938 1.54428 3.53797 1.41212 3.4386 1.31468C3.33923 1.21724 3.20446 1.1625 3.06392 1.1625ZM1.56438 1.1625C1.67385 0.85827 1.87687 0.594827 2.14544 0.408483C2.41401 0.222139 2.73492 0.12207 3.06392 0.12207C3.39293 0.12207 3.71384 0.222139 3.98241 0.408483C4.25098 0.594827 4.454 0.85827 4.56347 1.1625H8.36267C8.5032 1.1625 8.63798 1.21724 8.73735 1.31468C8.83672 1.41212 8.89254 1.54428 8.89254 1.68208C8.89254 1.81988 8.83672 1.95204 8.73735 2.04948C8.63798 2.14692 8.5032 2.20166 8.36267 2.20166H4.56347C4.454 2.50589 4.25098 2.76933 3.98241 2.95568C3.71384 3.14202 3.39293 3.24209 3.06392 3.24209C2.73492 3.24209 2.41401 3.14202 2.14544 2.95568C1.87687 2.76933 1.67385 2.50589 1.56438 2.20166H0.944425C0.803894 2.20166 0.669118 2.14692 0.569748 2.04948C0.470377 1.95204 0.414551 1.81988 0.414551 1.68208C0.414551 1.54428 0.470377 1.41212 0.569748 1.31468C0.669118 1.21724 0.803894 1.1625 0.944425 1.1625H1.56438ZM6.24317 4.27997C6.10264 4.27997 5.96786 4.33471 5.86849 4.43215C5.76912 4.52959 5.7133 4.66175 5.7133 4.79955C5.7133 4.93735 5.76912 5.06951 5.86849 5.16695C5.96786 5.26439 6.10264 5.31913 6.24317 5.31913C6.3837 5.31913 6.51848 5.26439 6.61785 5.16695C6.71722 5.06951 6.77305 4.93735 6.77305 4.79955C6.77305 4.66175 6.71722 4.52959 6.61785 4.43215C6.51848 4.33471 6.3837 4.27997 6.24317 4.27997ZM4.74363 4.27997C4.8531 3.97574 5.05611 3.7123 5.32469 3.52595C5.59326 3.33961 5.91417 3.23954 6.24317 3.23954C6.57218 3.23954 6.89308 3.33961 7.16166 3.52595C7.43023 3.7123 7.63324 3.97574 7.74272 4.27997H8.36267C8.5032 4.27997 8.63798 4.33471 8.73735 4.43215C8.83672 4.52959 8.89254 4.66175 8.89254 4.79955C8.89254 4.93735 8.83672 5.06951 8.73735 5.16695C8.63798 5.26439 8.5032 5.31913 8.36267 5.31913H7.74272C7.63324 5.62336 7.43023 5.8868 7.16166 6.07315C6.89308 6.25949 6.57218 6.35956 6.24317 6.35956C5.91417 6.35956 5.59326 6.25949 5.32469 6.07315C5.05611 5.8868 4.8531 5.62336 4.74363 5.31913H0.944425C0.803894 5.31913 0.669118 5.26439 0.569748 5.16695C0.470377 5.06951 0.414551 4.93735 0.414551 4.79955C0.414551 4.66175 0.470377 4.52959 0.569748 4.43215C0.669118 4.33471 0.803894 4.27997 0.944425 4.27997H4.74363ZM3.06392 7.39744C2.92339 7.39744 2.78862 7.45219 2.68925 7.54963C2.58988 7.64707 2.53405 7.77922 2.53405 7.91702C2.53405 8.05482 2.58988 8.18698 2.68925 8.28442C2.78862 8.38186 2.92339 8.4366 3.06392 8.4366C3.20446 8.4366 3.33923 8.38186 3.4386 8.28442C3.53797 8.18698 3.5938 8.05482 3.5938 7.91702C3.5938 7.77922 3.53797 7.64707 3.4386 7.54963C3.33923 7.45219 3.20446 7.39744 3.06392 7.39744ZM1.56438 7.39744C1.67385 7.09321 1.87687 6.82977 2.14544 6.64343C2.41401 6.45708 2.73492 6.35701 3.06392 6.35701C3.39293 6.35701 3.71384 6.45708 3.98241 6.64343C4.25098 6.82977 4.454 7.09321 4.56347 7.39744H8.36267C8.5032 7.39744 8.63798 7.45219 8.73735 7.54963C8.83672 7.64707 8.89254 7.77922 8.89254 7.91702C8.89254 8.05482 8.83672 8.18698 8.73735 8.28442C8.63798 8.38186 8.5032 8.4366 8.36267 8.4366H4.56347C4.454 8.74083 4.25098 9.00428 3.98241 9.19062C3.71384 9.37696 3.39293 9.47703 3.06392 9.47703C2.73492 9.47703 2.41401 9.37696 2.14544 9.19062C1.87687 9.00428 1.67385 8.74083 1.56438 8.4366H0.944425C0.803894 8.4366 0.669118 8.38186 0.569748 8.28442C0.470377 8.18698 0.414551 8.05482 0.414551 7.91702C0.414551 7.77922 0.470377 7.64707 0.569748 7.54963C0.669118 7.45219 0.803894 7.39744 0.944425 7.39744H1.56438Z" fill="#2F476F"/>
</svg>
