<svg width="21" height="21" viewBox="0 0 21 21" fill="none" xmlns="http://www.w3.org/2000/svg">
<g clip-path="url(#clip0_163_1445)">
<path d="M0.840035 3.25484C0.840035 4.58309 1.92678 5.66984 3.25504 5.66984L11.7075 5.66984C13.0358 5.66984 14.1225 4.58309 14.1225 3.25484C14.1225 1.92659 13.0358 0.839844 11.7075 0.839844L3.25504 0.839844C1.92678 0.839845 0.840035 1.92659 0.840035 3.25484ZM6.87754 15.3298L3.25504 15.3298C1.92679 15.3298 0.840035 16.4166 0.840035 17.7448C0.840035 19.0731 1.92679 20.1598 3.25504 20.1598L6.87754 20.1598C8.20579 20.1598 9.29253 19.0731 9.29253 17.7448C9.29253 16.4166 8.20579 15.3298 6.87754 15.3298ZM0.840035 10.4998C0.840035 11.8281 1.92679 12.9148 3.25504 12.9148L17.745 12.9148C19.0733 12.9148 20.16 11.8281 20.16 10.4998C20.16 9.17159 19.0733 8.08484 17.745 8.08484L3.25504 8.08484C1.92678 8.08484 0.840035 9.17159 0.840035 10.4998Z" fill="white"/>
</g>
<defs>
<clipPath id="clip0_163_1445">
<rect width="21" height="21" fill="white" transform="translate(21) rotate(90)"/>
</clipPath>
</defs>
</svg>
