<svg width="84" height="38" viewBox="0 0 84 38" fill="none" xmlns="http://www.w3.org/2000/svg">
<g clip-path="url(#clip0_145_698)">
<path d="M42.0261 0.464355L28.1624 24.7001H35.0942L42.0149 13.082L48.7396 24.7001H55.6658L42.0261 0.464355Z" fill="white"/>
<path d="M19.1152 22.395C19.7313 23.8373 21.1782 24.797 22.8117 24.6924C24.899 24.5613 26.4858 22.7333 26.3552 20.6069C26.2581 19.0126 25.2163 17.6995 23.8199 17.2017L19.1152 22.3931V22.395Z" fill="white"/>
<path d="M8.18072 22.3951C7.56464 23.8374 6.11777 24.797 4.48422 24.6925C2.397 24.5614 0.811982 22.7333 0.940799 20.6089C1.03788 19.0146 2.07962 17.7015 3.47608 17.2036L8.18072 22.3951Z" fill="white"/>
<path d="M13.6471 14.3265L0.93335 0.422363V9.25662L13.6471 23.3052L26.3608 9.56446V0.422363L13.6471 14.3265Z" fill="white"/>
<path d="M73.8179 0.561471H57.6317V24.7003H73.8179C79.9564 24.7003 83.0666 21.5345 83.0666 15.2922V9.9677C83.0666 3.72538 79.9564 0.55957 73.8179 0.55957V0.561471ZM76.7266 15.2941C76.7266 17.3445 75.8323 18.2547 73.8179 18.2547H63.9718V7.00901H73.8179C75.8323 7.00901 76.7266 7.92493 76.7266 9.9696V15.2941Z" fill="white"/>
<path d="M32.2826 37.578H34.0842L36.3936 33.1904L38.6376 37.578H40.4373L36.3936 29.749L32.2826 37.578Z" fill="white"/>
<path d="M48.1814 33.5399C48.5716 33.1371 48.8031 32.5936 48.8031 31.9855C48.8031 31.2197 48.4073 30.4919 47.7669 30.0891C47.1751 29.7166 46.4694 29.7508 45.8011 29.7508H41.3074V37.5798H46.251C46.363 37.5798 46.4694 37.5741 46.5833 37.5684C46.7252 37.5627 46.8671 37.5437 46.9978 37.5209C47.5485 37.4373 47.9872 37.2492 48.3121 36.9547C48.3587 36.9129 48.4073 36.8635 48.4483 36.8102C48.4782 36.7798 48.5081 36.7437 48.5305 36.7076C48.566 36.6658 48.5958 36.624 48.6257 36.5746C48.6668 36.5195 48.7022 36.4549 48.7377 36.3884C48.8983 36.0444 48.986 35.6283 48.9991 35.1399C48.9524 34.4957 48.6444 33.9219 48.1814 33.5437V33.5399ZM42.9521 31.4249H46.251C46.3051 31.4249 46.3518 31.4249 46.3985 31.4306C46.4339 31.4306 46.475 31.4363 46.5105 31.442C46.7588 31.4896 46.9492 31.7138 46.9492 31.9836C46.9492 32.2782 46.7252 32.5195 46.4395 32.5385C46.4283 32.5442 46.4097 32.5442 46.3985 32.5442H42.9521V31.423V31.4249ZM46.9417 35.6302C46.8727 35.7043 46.7905 35.767 46.7009 35.8107C46.5796 35.8696 46.4451 35.8886 46.3107 35.8924C46.1614 35.8981 46.012 35.8981 45.8627 35.8943C45.7376 35.8924 45.6125 35.8943 45.4874 35.8943H42.954V34.2183H46.2528C46.2827 34.2183 46.3182 34.2183 46.3481 34.224C46.3835 34.224 46.4134 34.224 46.4489 34.2354C46.4843 34.2411 46.5142 34.2468 46.5497 34.2544C46.5908 34.2658 46.6393 34.2791 46.6748 34.2962C46.8223 34.3627 46.9529 34.471 47.0426 34.6155C47.0538 34.6402 47.0724 34.6706 47.0836 34.6991C47.1378 34.8074 47.1658 34.929 47.1658 35.0544C47.1658 35.2653 47.0855 35.4706 46.9455 35.6245L46.9417 35.6302Z" fill="white"/>
<path d="M55.2384 32.5462C54.9602 32.5196 54.6764 32.5462 54.3983 32.5462H52.5799C52.4903 32.5462 52.4137 32.5462 52.326 32.5405C52.2438 32.5348 52.1729 32.5215 52.1001 32.5101C52.0889 32.5101 52.0814 32.5044 52.0702 32.5044C51.8742 32.4208 51.7379 32.2212 51.7379 31.9913C51.7379 31.7329 51.9153 31.5087 52.1524 31.4554C52.1934 31.444 52.2345 31.4364 52.283 31.4364C52.3727 31.4307 52.4735 31.425 52.5799 31.425H56.2148V29.749H52.5799C52.4791 29.749 52.3895 29.7547 52.283 29.7604C52.2121 29.7604 52.1412 29.7661 52.0702 29.7718H52.046C50.9501 29.8915 50.0988 30.8379 50.0988 31.9894C50.0988 33.0631 50.8381 33.9543 51.8331 34.1652L51.9395 34.1842C52.0217 34.1956 52.1113 34.2032 52.2065 34.2089C52.2308 34.2146 52.2606 34.2146 52.283 34.2146C52.3596 34.2146 52.4436 34.2203 52.5258 34.2203H53.6758C54.0921 34.2203 54.5084 34.2203 54.9247 34.2165C55.1562 34.2165 55.3952 34.2621 55.5838 34.4103C55.7742 34.5605 55.8825 34.8132 55.8825 35.0583C55.8825 35.3377 55.7425 35.6037 55.511 35.7576C55.3821 35.8431 55.244 35.883 55.0928 35.8868C54.893 35.8925 54.6932 35.8963 54.4954 35.8982C53.8457 35.9039 53.1978 35.8963 52.5482 35.8963H50.4105V37.578H55.0536C55.1432 37.578 55.2309 37.5723 55.3205 37.5666C56.5639 37.4279 57.5291 36.3619 57.5291 35.0602C57.5291 34.4977 57.3405 33.9429 56.997 33.502C56.5714 32.9547 55.9179 32.6127 55.2384 32.5481V32.5462Z" fill="white"/>
<path d="M28.1157 29.749H26.4691V37.5723H26.4729H28.1157H31.4127V35.8982H28.1157V29.749Z" fill="white"/>
</g>
<defs>
<clipPath id="clip0_145_698">
<rect width="84" height="38" fill="white"/>
</clipPath>
</defs>
</svg>
