<svg width="26" height="26" viewBox="0 0 26 26" fill="none" xmlns="http://www.w3.org/2000/svg">
<path fill-rule="evenodd" clip-rule="evenodd" d="M11.375 2.1665C9.90667 2.16663 8.45963 2.5179 7.15464 3.19101C5.84965 3.86411 4.72455 4.83954 3.8732 6.0359C3.02186 7.23227 2.46896 8.61488 2.26063 10.0684C2.0523 11.5219 2.19459 13.0041 2.67562 14.3915C3.15666 15.7788 3.96248 17.031 5.02587 18.0435C6.08926 19.0561 7.37938 19.7997 8.78859 20.2122C10.1978 20.6248 11.6852 20.6944 13.1268 20.4152C14.5684 20.1359 15.9223 19.516 17.0755 18.6072L21.0319 22.5635C21.2362 22.7608 21.5098 22.87 21.7939 22.8676C22.0779 22.8651 22.3496 22.7512 22.5505 22.5503C22.7514 22.3494 22.8653 22.0777 22.8678 21.7937C22.8702 21.5096 22.761 21.236 22.5637 21.0317L18.6074 17.0753C19.6777 15.7175 20.3441 14.0858 20.5304 12.3669C20.7167 10.648 20.4152 8.91136 19.6606 7.35577C18.906 5.80018 17.7287 4.48847 16.2634 3.57075C14.7981 2.65304 13.104 2.16639 11.375 2.1665ZM4.33336 11.3748C4.33336 9.50727 5.07525 7.7162 6.39582 6.39563C7.71639 5.07506 9.50746 4.33317 11.375 4.33317C13.2426 4.33317 15.0337 5.07506 16.3542 6.39563C17.6748 7.7162 18.4167 9.50727 18.4167 11.3748C18.4167 13.2424 17.6748 15.0335 16.3542 16.354C15.0337 17.6746 13.2426 18.4165 11.375 18.4165C9.50746 18.4165 7.71639 17.6746 6.39582 16.354C5.07525 15.0335 4.33336 13.2424 4.33336 11.3748Z" fill="black"/>
</svg>
