<svg width="34" height="34" viewBox="0 0 34 34" fill="none" xmlns="http://www.w3.org/2000/svg">
<path fill-rule="evenodd" clip-rule="evenodd" d="M14.8751 2.8335C12.955 2.83366 11.0627 3.29301 9.35615 4.17323C7.64962 5.05345 6.17833 6.329 5.06503 7.89348C3.95174 9.45796 3.22871 11.266 2.95629 13.1667C2.68386 15.0675 2.86993 17.0058 3.49897 18.82C4.12801 20.6342 5.18178 22.2717 6.57237 23.5958C7.96295 24.9199 9.65003 25.8923 11.4928 26.4318C13.3357 26.9713 15.2808 27.0622 17.1659 26.6971C19.051 26.332 20.8215 25.5214 22.3296 24.3328L27.5033 29.5065C27.7705 29.7646 28.1283 29.9073 28.4998 29.9041C28.8712 29.9009 29.2265 29.7519 29.4892 29.4892C29.7519 29.2266 29.9008 28.8713 29.9041 28.4998C29.9073 28.1284 29.7645 27.7705 29.5064 27.5033L24.3328 22.3297C25.7324 20.554 26.6039 18.4202 26.8475 16.1724C27.0911 13.9247 26.6969 11.6537 25.7101 9.61946C24.7233 7.58523 23.1837 5.86992 21.2675 4.66982C19.3514 3.46973 17.1361 2.83334 14.8751 2.8335ZM5.66678 14.8752C5.66678 12.433 6.63694 10.0908 8.36384 8.36389C10.0907 6.63699 12.4329 5.66683 14.8751 5.66683C17.3173 5.66683 19.6595 6.63699 21.3864 8.36389C23.1133 10.0908 24.0835 12.433 24.0835 14.8752C24.0835 17.3174 23.1133 19.6595 21.3864 21.3864C19.6595 23.1133 17.3173 24.0835 14.8751 24.0835C12.4329 24.0835 10.0907 23.1133 8.36384 21.3864C6.63694 19.6595 5.66678 17.3174 5.66678 14.8752Z" fill="black"/>
</svg>
