<svg width="21" height="22" viewBox="0 0 21 22" fill="none" xmlns="http://www.w3.org/2000/svg">
<path fill-rule="evenodd" clip-rule="evenodd" d="M10.5 0.5C11.8789 0.499994 13.2442 0.771579 14.5182 1.29925C15.7921 1.82692 16.9496 2.60034 17.9246 3.57535C18.8996 4.55037 19.6731 5.70788 20.2007 6.9818C20.7284 8.25572 21 9.62109 21 11C21 16.799 16.299 21.5 10.5 21.5C4.70103 21.5 0 16.799 0 11C0 5.20103 4.70103 0.5 10.5 0.5ZM11.55 12.05H9.44999C6.85051 12.05 4.61878 13.6244 3.65621 15.8717C5.17924 18.0074 7.67699 19.4 10.5 19.4C13.323 19.4 15.8207 18.0074 17.3438 15.8716C16.3812 13.6244 14.1495 12.05 11.55 12.05ZM10.5 3.65C8.76029 3.65 7.34998 5.06031 7.34998 6.8C7.34998 8.53968 8.76029 9.94999 10.5 9.94999C12.2397 9.94999 13.65 8.53968 13.65 6.8C13.65 5.06031 12.2397 3.65 10.5 3.65Z" fill="white"/>
</svg>
